<?xml version="1.0" encoding="UTF-8"?>
<svg id="Layer_1" xmlns="http://www.w3.org/2000/svg" version="1.1" xmlns:xlink="http://www.w3.org/1999/xlink" viewBox="0 0 512.6 512.4">
  <!-- Generator: Adobe Illustrator 30.5.1, SVG Export Plug-In . SVG Version: 2.1.4 Build 3)  -->
  <defs>
    <style>
      .st0 {
        fill: none;
        stroke: #fff;
        stroke-miterlimit: 10;
        stroke-width: .4px;
      }

      .st1 {
        mix-blend-mode: screen;
        opacity: .5;
      }

      .st2 {
        fill: url(#linear-gradient1);
      }

      .st3 {
        isolation: isolate;
      }

      .st4 {
        fill: #0d224c;
      }

      .st5 {
        fill: url(#linear-gradient);
      }
    </style>
    <linearGradient id="linear-gradient" x1="121.3" y1="105.9" x2="432.9" y2="-134.1" gradientTransform="translate(0 236.4) scale(1 -1)" gradientUnits="userSpaceOnUse">
      <stop offset="0" stop-color="#d3dbef"/>
      <stop offset="1" stop-color="#3d6ef9"/>
    </linearGradient>
    <linearGradient id="linear-gradient1" x1="124.7" y1="103.4" x2="386.5" y2="-98.5" gradientTransform="translate(0 236.4) scale(1 -1)" gradientUnits="userSpaceOnUse">
      <stop offset="0" stop-color="#fff"/>
      <stop offset=".5" stop-color="#231f20"/>
      <stop offset="1" stop-color="#fff"/>
    </linearGradient>
  </defs>
  <g class="st3">
    <g id="Layer_11">
      <rect class="st4" y=".2" width="512" height="512" rx="112" ry="112"/>
      <line class="st0" x1="512.4" y1=".2" y2=".2"/>
      <line class="st0" x1="512.4" y1="85.5" y2="85.5"/>
      <line class="st0" x1="512.4" y1="170.9" y2="170.9"/>
      <line class="st0" x1="512.4" y1="256.2" y2="256.2"/>
      <line class="st0" x1="512.4" y1="341.5" y2="341.5"/>
      <line class="st0" x1="512.4" y1="426.9" y2="426.9"/>
      <line class="st0" x1="512.4" y1="512.2" y2="512.2"/>
      <line class="st0" x1="512.4" y1="512.2" x2="512.4" y2=".2"/>
      <line class="st0" x1="427.1" y1="512.2" x2="427.1" y2=".2"/>
      <line class="st0" x1="341.8" y1="512.2" x2="341.8" y2=".2"/>
      <line class="st0" x1="256.4" y1="512.2" x2="256.5" y2=".2"/>
      <line class="st0" x1="171.1" y1="512.2" x2="171.1" y2=".2"/>
      <line class="st0" x1="85.8" y1="512.2" x2="85.8" y2=".2"/>
      <line class="st0" x1=".5" y1="512.2" x2=".5" y2=".2"/>
      <g>
        <path class="st5" d="M308.6,306.2h-105.2c-3.5,0-6.6-2.1-7.9-5.3l-68.8-163.3c-2.4-5.7,1.7-12,7.9-12h242.7c6.2,0,10.4,6.3,7.9,12l-68.8,163.3c-1.3,3.2-4.5,5.3-7.9,5.3h.1ZM381.5,338.3v-11.4c0-4.8-3.8-8.6-8.6-8.6h-233.2c-4.8,0-8.6,3.8-8.6,8.6v11.4c0,4.8,3.8,8.6,8.6,8.6h233.3c4.8,0,8.6-3.8,8.6-8.6h-.1ZM313.7,376.2v-8.9c0-4.8-3.8-8.6-8.6-8.6h-97.6c-4.8,0-8.6,3.8-8.6,8.6v8.9c0,4.8,3.8,8.6,8.6,8.6h97.6c4.8,0,8.6-3.8,8.6-8.6Z"/>
        <g class="st1">
          <path class="st2" d="M377.4,126.6c2.6,0,5,1.3,6.4,3.4,1.4,2.1,1.7,4.8.7,7.2l-68.8,163.3c-1.2,2.9-4,4.7-7.1,4.7h-105.2c-3.1,0-5.9-1.8-7.1-4.7l-68.8-163.3c-1-2.4-.7-5.1.7-7.2s3.8-3.4,6.4-3.4h242.7M372.9,319.2c4.2,0,7.6,3.4,7.6,7.6v11.4c0,4.2-3.4,7.6-7.6,7.6h-233.2c-4.2,0-7.6-3.4-7.6-7.6v-11.4c0-4.2,3.4-7.6,7.6-7.6h233.3M305.1,359.8c4.2,0,7.6,3.4,7.6,7.6v8.9c0,4.2-3.4,7.6-7.6,7.6h-97.6c-4.2,0-7.6-3.4-7.6-7.6v-8.9c0-4.2,3.4-7.6,7.6-7.6h97.6M377.4,125.6h-242.7c-6.2,0-10.4,6.3-7.9,12l68.8,163.3c1.3,3.2,4.5,5.3,7.9,5.3h105.2c3.5,0,6.6-2.1,7.9-5.3l68.8-163.3c2.4-5.7-1.7-12-7.9-12h-.1ZM372.9,318.3h-233.2c-4.8,0-8.6,3.8-8.6,8.6v11.4c0,4.8,3.8,8.6,8.6,8.6h233.3c4.8,0,8.6-3.8,8.6-8.6v-11.4c0-4.8-3.8-8.6-8.6-8.6h-.1ZM305.1,358.9h-97.6c-4.8,0-8.6,3.8-8.6,8.6v8.9c0,4.8,3.8,8.6,8.6,8.6h97.6c4.8,0,8.6-3.8,8.6-8.6v-8.9c0-4.8-3.8-8.6-8.6-8.6h0Z"/>
        </g>
      </g>
    </g>
  </g>
</svg>