<?xml version="1.0" encoding="UTF-8"?>
<svg id="Layer_1" xmlns="http://www.w3.org/2000/svg" version="1.1" viewBox="0 0 512 512">
  <!-- Generator: Adobe Illustrator 30.5.1, SVG Export Plug-In . SVG Version: 2.1.4 Build 3)  -->
  <defs>
    <style>
      .st0 {
        fill: #064cb2;
      }

      .st1 {
        fill: #1b1410;
      }

      .st2 {
        fill: #c98a5a;
      }
    </style>
  </defs>
  <rect class="st1" width="512" height="512" rx="112" ry="112"/>
  <path class="st2" d="M256,447c-105.3,0-191-85.7-191-191s85.7-191,191-191,191,85.7,191,191-85.7,191-191,191ZM256,120c-75,0-136,61-136,136s61,136,136,136,136-61,136-136-61-136-136-136Z"/>
  <path class="st0" d="M204.3,130.2c-49.4,20.4-84.3,69.1-84.3,125.8h-55c0-79.6,49-148,118.4-176.7l20.9,50.9Z"/>
</svg>